<svg xmlns="http://www.w3.org/2000/svg" width="2850" height="412" xmlns:v="https://vecta.io/nano"><path d="M184 146c61 0 89 26 89 54v1c0 27-27 55-89 55h-3c-60 0-80-28-80-55v-2c0-27 17-53 80-53zm23 265c144 0 165-85 165-128V91h-98v31c-12-12-44-37-122-37h-9C38 85 1 137 1 194v9c0 60 43 113 154 113h5c74 0 103-25 115-36 0 30-12 68-84 68h-2c-66 0-74-16-75-22H16v1c0 19 12 84 160 84zm301-207c0-30 18-56 51-56h1c36 0 49 25 49 56h94v-14c0-60-27-105-95-105h-5c-59 0-87 34-96 47V91h-96v235h97zm427 17c0 28-33 56-85 56-34 0-43-14-43-26v-1c0-13 10-18 35-22l93-14zm3 73c3 22 19 32 37 32h79v-64h-12c-10 0-13-5-13-12v-90c0-34-8-76-145-76h-24c-131 0-140 49-140 80v1h90c1-8 4-27 62-27h2c57 0 61 11 61 20 0 7-4 11-15 12l-107 10c-71 6-99 27-99 70v3c0 41 31 77 109 77h6c70 0 98-24 109-36zm150 114h85c42 0 65-22 87-66l123-251h-98l-73 159-76-159h-105l113 215c7 13 11 20 11 25 0 4-3 7-12 7h-55zm555-199c0 30-30 61-88 61h-2c-58 0-80-33-80-61v-2c0-31 18-60 79-60h2c58 0 89 29 89 60zm0-208v121c-11-9-44-37-118-37h-7c-105 0-144 54-144 117v9c0 66 43 121 148 121h6c75 0 110-33 116-42v36h97V1zm302 138c49 0 73 15 79 40h-158c8-25 30-40 79-40zm176 104h-96c-2 6-12 30-77 30-54 0-78-18-83-46h257v-16c0-57-26-127-163-127h-27c-127 0-163 58-163 119v9c0 62 40 121 166 121h25c140 0 161-58 161-90zm28 83h98V215c0-39 28-64 72-64 43 0 63 23 63 59v116h99V177c0-45-33-92-115-92h-3c-71 0-105 35-117 46V91h-97zm369 0h98V215c0-39 28-64 72-64 43 0 63 23 63 59v116h98V177c0-45-32-92-114-92h-3c-71 0-105 35-117 46V91h-97z" fill="#6b6b6b"/></svg>